<svg width="16" height="15" viewBox="0 0 16 15" fill="none" xmlns="http://www.w3.org/2000/svg">
<path d="M8.13683 3.68162C6.02169 3.68162 4.31561 5.38494 4.31561 7.49666C4.31561 9.60838 6.02169 11.3117 8.13683 11.3117C10.252 11.3117 11.9581 9.60838 11.9581 7.49666C11.9581 5.38494 10.252 3.68162 8.13683 3.68162ZM8.13683 9.97693C6.76997 9.97693 5.65254 8.86463 5.65254 7.49666C5.65254 6.12869 6.76664 5.01639 8.13683 5.01639C9.50702 5.01639 10.6211 6.12869 10.6211 7.49666C10.6211 8.86463 9.50369 9.97693 8.13683 9.97693ZM13.0056 3.52557C13.0056 4.02029 12.6066 4.41541 12.1144 4.41541C11.6188 4.41541 11.2231 4.01697 11.2231 3.52557C11.2231 3.03416 11.6222 2.63572 12.1144 2.63572C12.6066 2.63572 13.0056 3.03416 13.0056 3.52557ZM15.5365 4.42869C15.48 3.2367 15.2073 2.18084 14.3326 1.31092C13.4613 0.440997 12.4037 0.168732 11.2098 0.108966C9.97926 0.0392395 6.29107 0.0392395 5.06056 0.108966C3.86997 0.165411 2.8124 0.437677 1.93774 1.3076C1.06308 2.17752 0.7937 3.23338 0.733837 4.42537C0.663998 5.65389 0.663998 9.33611 0.733837 10.5646C0.790374 11.7566 1.06308 12.8125 1.93774 13.6824C2.8124 14.5523 3.86664 14.8246 5.06056 14.8844C6.29107 14.9541 9.97926 14.9541 11.2098 14.8844C12.4037 14.8279 13.4613 14.5556 14.3326 13.6824C15.2039 12.8125 15.4766 11.7566 15.5365 10.5646C15.6063 9.33611 15.6063 5.65721 15.5365 4.42869ZM13.9468 11.8828C13.6874 12.5336 13.1852 13.0349 12.5301 13.2972C11.549 13.6857 9.22101 13.5961 8.13683 13.5961C7.05265 13.5961 4.72134 13.6824 3.74359 13.2972C3.09175 13.0383 2.58957 12.5369 2.32684 11.8828C1.93774 10.9033 2.02753 8.57908 2.02753 7.49666C2.02753 6.41424 1.94106 4.0867 2.32684 3.11053C2.58625 2.45975 3.08843 1.95838 3.74359 1.69608C4.72467 1.3076 7.05265 1.39725 8.13683 1.39725C9.22101 1.39725 11.5523 1.31092 12.5301 1.69608C13.1819 1.95506 13.6841 2.45643 13.9468 3.11053C14.3359 4.09002 14.2461 6.41424 14.2461 7.49666C14.2461 8.57908 14.3359 10.9066 13.9468 11.8828Z" fill="white"/>
</svg>
